<?xml version="1.0" encoding="iso-8859-1"?>
<!-- Generator: Adobe Illustrator 19.0.0, SVG Export Plug-In . SVG Version: 6.00 Build 0)  -->
<svg version="1.1" id="Capa_1" xmlns="http://www.w3.org/2000/svg" xmlns:xlink="http://www.w3.org/1999/xlink" x="0px" y="0px"
	 viewBox="0 0 512 512" style="enable-background:new 0 0 512 512;" xml:space="preserve">
<g>
	<g>
		<path d="M412.864,240.032C397.952,166.016,333.088,112,256,112c-64.032,0-121.504,38.112-146.688,96.032
			C48.8,209.472,0,259.136,0,320c0,61.76,50.24,112,112,112h304c52.928,0,96-43.072,96-96
			C512,282.016,468.8,238.656,412.864,240.032z M416,400H112c-44.096,0-80-35.872-80-80s35.904-80,80-80c1.28,0,3.392,0,4.128,0.16
			c8.096,2.08,16.288-2.464,19.008-10.272C152.928,178.528,201.504,144,256,144c66.016,0,120.8,49.536,127.456,115.2
			c0.416,4.448,2.72,8.512,6.304,11.2c3.584,2.688,8.16,3.744,12.544,2.912C406.496,272.544,411.296,272,416,272
			c35.296,0,64,28.704,64,64C480,371.296,451.296,400,416,400z"/>
	</g>
</g>
<g>
	<g>
		<path d="M510.816,161.504c-0.992-5.824-5.056-10.592-10.624-12.48s-11.712-0.608-16.032,3.392
			C478.816,157.376,471.808,160,464,160c-17.664,0-32-14.368-32-32c0-7.84,2.624-14.816,7.616-20.192
			c4-4.32,5.28-10.464,3.36-16.032s-6.688-9.632-12.512-10.592C425.792,80.384,421.088,80,416,80
			c-42.72,0-80.768,28.704-92.48,69.856c-2.432,8.48,2.496,17.344,10.976,19.776c8.544,2.368,17.344-2.528,19.776-11.008
			c6.496-22.72,24.992-39.776,47.36-44.96c-1.056,4.64-1.632,9.44-1.632,14.336c0,35.296,28.704,64,64,64
			c4.896,0,9.728-0.544,14.368-1.632C471.84,218.752,446.336,240,416,240c-4.8,0-9.408-0.512-13.6-1.504
			c-8.64-2.016-17.248,3.328-19.232,11.904c-2.048,8.608,3.264,17.248,11.904,19.264C401.664,271.2,408.704,272,416,272
			c52.928,0,96-43.072,96-96C512,170.912,511.584,166.176,510.816,161.504z"/>
	</g>
</g>
<g>
</g>
<g>
</g>
<g>
</g>
<g>
</g>
<g>
</g>
<g>
</g>
<g>
</g>
<g>
</g>
<g>
</g>
<g>
</g>
<g>
</g>
<g>
</g>
<g>
</g>
<g>
</g>
<g>
</g>
</svg>
