<?xml version="1.0" encoding="iso-8859-1"?>
<!-- Generator: Adobe Illustrator 19.0.0, SVG Export Plug-In . SVG Version: 6.00 Build 0)  -->
<svg version="1.1" id="Capa_1" xmlns="http://www.w3.org/2000/svg" xmlns:xlink="http://www.w3.org/1999/xlink" x="0px" y="0px"
	 viewBox="0 0 512 512" style="enable-background:new 0 0 512 512;" xml:space="preserve">
<g>
	<g>
		<path d="M412.864,240.032C397.952,166.016,333.088,112,256,112c-64.032,0-121.504,38.112-146.688,96.032
			C48.8,209.472,0,259.136,0,320c0,61.76,50.24,112,112,112h304c52.928,0,96-43.072,96-96
			C512,282.016,468.8,238.656,412.864,240.032z M416,400H112c-44.096,0-80-35.872-80-80s35.904-80,80-80c1.28,0,3.392,0,4.128,0.16
			c8.096,2.08,16.288-2.464,19.008-10.272C152.928,178.528,201.504,144,256,144c66.016,0,120.8,49.536,127.456,115.2
			c0.416,4.448,2.72,8.512,6.304,11.2c3.584,2.688,8.16,3.744,12.544,2.912C406.496,272.544,411.296,272,416,272
			c35.296,0,64,28.704,64,64C480,371.296,451.296,400,416,400z"/>
	</g>
</g>
<g>
	<g>
		<path d="M416,80c-42.72,0-80.768,28.704-92.512,69.856c-2.432,8.48,2.496,17.344,10.976,19.776
			c8.544,2.368,17.344-2.528,19.776-11.008C362.08,131.168,387.488,112,416,112c35.296,0,64,28.704,64,64s-28.704,64-64,64
			c-4.8,0-9.408-0.512-13.6-1.504c-8.64-2.016-17.248,3.328-19.232,11.904c-2.048,8.608,3.264,17.248,11.904,19.264
			C401.664,271.2,408.704,272,416,272c52.928,0,96-43.072,96-96S468.928,80,416,80z"/>
	</g>
</g>
<g>
</g>
<g>
</g>
<g>
</g>
<g>
</g>
<g>
</g>
<g>
</g>
<g>
</g>
<g>
</g>
<g>
</g>
<g>
</g>
<g>
</g>
<g>
</g>
<g>
</g>
<g>
</g>
<g>
</g>
</svg>
